<?xml version="1.0" ?><!DOCTYPE svg  PUBLIC '-//W3C//DTD SVG 1.1//EN'  'http://www.w3.org/Graphics/SVG/1.1/DTD/svg11.dtd'><svg enable-background="new 0 0 50 50" id="Layer_1" version="1.1" viewBox="0 0 50 50" xml:space="preserve" xmlns="http://www.w3.org/2000/svg" xmlns:xlink="http://www.w3.org/1999/xlink"><path d="M45,1H5C2.8,1,1,2.8,1,5v40c0,2.2,1.8,4,4,4h40c2.2,0,4-1.8,4-4V5C49,2.8,47.2,1,45,1z" fill="#FF8E2E"/><g id="a"><g id=":_x29__5_"><path d="M35.7,34.3c-0.1,0-0.3,0-0.4,0.1c-0.2,0.1-0.3,0.1-0.5,0.2l-0.2,0.1l-0.3,0.1v0    C31,36.1,27,37,24,37s-8.8-2.3-12.9-4.6c-0.1-0.1-0.3-0.1-0.4-0.1c-0.2,0-0.4,0.1-0.5,0.2S10,32.8,10,33c0,0.2,0.1,0.5,0.3,0.6    C14.1,36.9,19,40,24,40c5,0,7.8-1.3,10.9-3.3l0,0c0.4-0.2,0.7-0.4,1-0.7c0.2-0.2,0.6-0.6,0.6-0.8C36.6,34.6,36.1,34.3,35.7,34.3z" fill="#FFFFFF" id="_x29__5_"/><path d="M40,32.5L40,32.5c0-0.3-0.1-0.6-0.2-0.8l0,0l0,0c-0.1-0.1-0.3-0.2-0.4-0.3    c-0.4-0.2-1-0.2-1.7-0.2c-0.5,0-1.1,0-1.7,0.2l0,0l-0.6,0.2l0,0l-0.3,0.1v0c-0.4,0.2-0.7,0.4-1.1,0.6c-0.2,0.2-0.4,0.4-0.4,0.7    c0,0.2,0.1,0.4,0.2,0.5s0.3,0.2,0.4,0.2c0,0,0.1,0,0.1,0l0,0l0,0c0.3-0.1,0.7-0.1,1.2-0.2c0.4,0,0.9-0.1,1.2-0.1    c0.3,0,0.5,0,0.7,0.1c0.1,0,0.1,0,0.2,0.1c0,0,0,0,0,0c0,0,0,0.1,0,0.2c0,0.3-0.1,0.9-0.3,1.5c-0.2,0.6-0.4,1.2-0.5,1.5    c0,0.1-0.1,0.2-0.1,0.3c0,0.2,0.1,0.3,0.2,0.5s0.3,0.2,0.4,0.2h0c0.2,0,0.4-0.1,0.5-0.2c1.5-1.3,2-3.4,2-4.6L40,32.5z" fill="#FFFFFF" id="_x3E__5_"/></g><path d="M27,18c-2,0-6,1.1-8,2c-2.4,1.1-4,2.9-4,6c0,3.9,2.8,6,6,6c1.1,0,4,0,6-3c0.7,1,1.3,1.5,2.5,2.5   c0.3,0.1,0.7,0.1,0.9-0.1c0.8-0.7,2.2-1.9,2.9-2.5c0.3-0.3,0.3-0.7,0.1-1C32.7,27,32,25.8,32,24v-6c0-2.5-0.1-4.3-2-6   c-1.5-1.4-3.1-2-5-2h-1c-3.4,0.2-7.2,1.7-8,5.8c-0.1,0.5,0.3,0.7,0.5,0.8l3.7,0.5c0.4-0.1,0.6-0.4,0.7-0.7c0.3-1.5,0.8-2.2,2.1-2.4   l1,0c0.8,0,1.5,0.3,2,1C26.5,15.8,27,17.1,27,18L27,18L27,18z M23.8,27.9c-0.1,0-0.3,0.1-0.5,0.1c-1.5,0-2.2-1.4-2.2-3c0-4,5-4,6-4   v1C27,27,24.6,27.7,23.8,27.9z" fill="#FFFFFF" id="a_5_"/></g></svg>