<?xml version="1.0" encoding="UTF-8"?>
<!DOCTYPE svg PUBLIC "-//W3C//DTD SVG 1.1//EN" "http://www.w3.org/Graphics/SVG/1.1/DTD/svg11.dtd">
<svg version="1.2" width="53.18mm" height="53.18mm" viewBox="0 0 5318 5318" preserveAspectRatio="xMidYMid" fill-rule="evenodd" stroke-width="28.222" stroke-linejoin="round" xmlns="http://www.w3.org/2000/svg" xmlns:ooo="http://xml.openoffice.org/svg/export" xmlns:xlink="http://www.w3.org/1999/xlink" xmlns:presentation="http://sun.com/xmlns/staroffice/presentation" xmlns:smil="http://www.w3.org/2001/SMIL20/" xmlns:anim="urn:oasis:names:tc:opendocument:xmlns:animation:1.0" xml:space="preserve">
 <defs class="ClipPathGroup">
  <clipPath id="presentation_clip_path" clipPathUnits="userSpaceOnUse">
   <rect x="0" y="0" width="5318" height="5318"/>
  </clipPath>
  <clipPath id="presentation_clip_path_shrink" clipPathUnits="userSpaceOnUse">
   <rect x="5" y="5" width="5308" height="5308"/>
  </clipPath>
 </defs>
 <defs class="TextShapeIndex">
  <g ooo:slide="id1" ooo:id-list="id3"/>
 </defs>
 <defs class="EmbeddedBulletChars">
  <g id="bullet-char-template-57356" transform="scale(0.00048828125,-0.00048828125)">
   <path d="M 580,1141 L 1163,571 580,0 -4,571 580,1141 Z"/>
  </g>
  <g id="bullet-char-template-57354" transform="scale(0.00048828125,-0.00048828125)">
   <path d="M 8,1128 L 1137,1128 1137,0 8,0 8,1128 Z"/>
  </g>
  <g id="bullet-char-template-10146" transform="scale(0.00048828125,-0.00048828125)">
   <path d="M 174,0 L 602,739 174,1481 1456,739 174,0 Z M 1358,739 L 309,1346 659,739 1358,739 Z"/>
  </g>
  <g id="bullet-char-template-10132" transform="scale(0.00048828125,-0.00048828125)">
   <path d="M 2015,739 L 1276,0 717,0 1260,543 174,543 174,936 1260,936 717,1481 1274,1481 2015,739 Z"/>
  </g>
  <g id="bullet-char-template-10007" transform="scale(0.00048828125,-0.00048828125)">
   <path d="M 0,-2 C -7,14 -16,27 -25,37 L 356,567 C 262,823 215,952 215,954 215,979 228,992 255,992 264,992 276,990 289,987 310,991 331,999 354,1012 L 381,999 492,748 772,1049 836,1024 860,1049 C 881,1039 901,1025 922,1006 886,937 835,863 770,784 769,783 710,716 594,584 L 774,223 C 774,196 753,168 711,139 L 727,119 C 717,90 699,76 672,76 641,76 570,178 457,381 L 164,-76 C 142,-110 111,-127 72,-127 30,-127 9,-110 8,-76 1,-67 -2,-52 -2,-32 -2,-23 -1,-13 0,-2 Z"/>
  </g>
  <g id="bullet-char-template-10004" transform="scale(0.00048828125,-0.00048828125)">
   <path d="M 285,-33 C 182,-33 111,30 74,156 52,228 41,333 41,471 41,549 55,616 82,672 116,743 169,778 240,778 293,778 328,747 346,684 L 369,508 C 377,444 397,411 428,410 L 1163,1116 C 1174,1127 1196,1133 1229,1133 1271,1133 1292,1118 1292,1087 L 1292,965 C 1292,929 1282,901 1262,881 L 442,47 C 390,-6 338,-33 285,-33 Z"/>
  </g>
  <g id="bullet-char-template-9679" transform="scale(0.00048828125,-0.00048828125)">
   <path d="M 813,0 C 632,0 489,54 383,161 276,268 223,411 223,592 223,773 276,916 383,1023 489,1130 632,1184 813,1184 992,1184 1136,1130 1245,1023 1353,916 1407,772 1407,592 1407,412 1353,268 1245,161 1136,54 992,0 813,0 Z"/>
  </g>
  <g id="bullet-char-template-8226" transform="scale(0.00048828125,-0.00048828125)">
   <path d="M 346,457 C 273,457 209,483 155,535 101,586 74,649 74,723 74,796 101,859 155,911 209,963 273,989 346,989 419,989 480,963 531,910 582,859 608,796 608,723 608,648 583,586 532,535 482,483 420,457 346,457 Z"/>
  </g>
  <g id="bullet-char-template-8211" transform="scale(0.00048828125,-0.00048828125)">
   <path d="M -4,459 L 1135,459 1135,606 -4,606 -4,459 Z"/>
  </g>
  <g id="bullet-char-template-61548" transform="scale(0.00048828125,-0.00048828125)">
   <path d="M 173,740 C 173,903 231,1043 346,1159 462,1274 601,1332 765,1332 928,1332 1067,1274 1183,1159 1299,1043 1357,903 1357,740 1357,577 1299,437 1183,322 1067,206 928,148 765,148 601,148 462,206 346,322 231,437 173,577 173,740 Z"/>
  </g>
 </defs>
 <g>
  <g id="id2" class="Master_Slide">
   <g id="bg-id2" class="Background"/>
   <g id="bo-id2" class="BackgroundObjects"/>
  </g>
 </g>
 <g class="SlideGroup">
  <g>
   <g id="container-id1">
    <g id="id1" class="Slide" clip-path="url(#presentation_clip_path)">
     <g class="Page">
      <g class="Graphic">
       <g id="id3">
        <rect class="BoundingBox" stroke="none" fill="none" x="-1128" y="-1128" width="7596" height="7596"/>
        <path fill="rgb(96,180,70)" stroke="none" d="M 4608,100 L 731,100 C 383,100 100,383 100,731 L 100,2420 100,4608 C 100,4956 383,5239 731,5239 L 4612,5239 C 4959,5239 5243,4956 5243,4608 L 5243,3036 5243,731 C 5239,383 4956,100 4608,100 L 4608,100 Z"/>
        <defs>
         <clipPath id="clip_path_1" clipPathUnits="userSpaceOnUse">
          <path d="M 4608,100 L 731,100 C 383,100 100,383 100,731 L 100,2420 100,4608 C 100,4956 383,5239 731,5239 L 4612,5239 C 4959,5239 5243,4956 5243,4608 L 5243,3036 5243,731 C 5239,383 4956,100 4608,100 L 4608,100 Z"/>
         </clipPath>
        </defs>
        <g clip-path="url(#clip_path_1)">
         <path fill="rgb(0,0,0)" fill-opacity="0.298" stroke="rgb(255,255,255)" stroke-opacity="0.298" d="M 1256,4109 L 2386,5239 5239,5239 5239,2390 4132,1287 1203,1328 1048,1475 1302,1729 1256,4109 Z"/>
        </g>
        <path fill="rgb(255,255,255)" stroke="none" d="M 1819,1710 C 1778,1755 1736,1789 1706,1831 1385,2224 1298,2662 1479,3134 1664,3607 2023,3875 2530,3943 2764,3973 2987,3932 3202,3837 3221,3830 3248,3822 3267,3830 3591,3928 3920,3924 4249,3848 4268,3845 4283,3841 4313,3837 4302,3856 4294,3867 4287,3879 3939,4328 3489,4600 2923,4668 1952,4786 1064,4223 754,3297 663,3032 629,2756 663,2477 686,2295 780,2137 901,1997 1132,1736 1426,1645 1770,1695 1785,1698 1797,1702 1819,1710 L 1819,1710 Z"/>
        <path fill="rgb(255,255,255)" stroke="none" d="M 3588,3584 C 3659,3474 3743,3376 3803,3263 4215,2473 3716,1521 2832,1400 2613,1370 2401,1400 2193,1479 2175,1487 2140,1487 2125,1479 1785,1294 1441,1287 1094,1460 1079,1468 1067,1475 1052,1479 1052,1479 1048,1479 1045,1475 1166,1309 1309,1166 1475,1045 1774,826 2106,701 2469,663 3497,561 4438,1264 4638,2273 4680,2481 4699,2688 4661,2896 4600,3229 4411,3452 4083,3546 3924,3595 3754,3603 3588,3584 L 3588,3584 Z"/>
        <path fill="rgb(255,255,255)" stroke="none" d="M 2345,1649 C 2439,1634 2533,1611 2624,1608 3172,1589 3637,1967 3720,2507 3780,2908 3644,3244 3331,3505 3316,3520 3282,3523 3259,3516 3172,3493 3123,3425 3074,3357 2960,3191 2881,3002 2817,2813 2756,2632 2704,2447 2647,2261 2583,2057 2499,1865 2363,1695 2360,1687 2356,1683 2352,1676 2348,1672 2348,1668 2345,1649 L 2345,1649 Z"/>
        <path fill="rgb(255,255,255)" stroke="none" d="M 2031,3531 C 1970,3471 1910,3418 1853,3357 1464,2908 1536,2193 2012,1831 2046,1804 2069,1804 2103,1827 2197,1891 2277,1974 2326,2080 2390,2212 2450,2345 2507,2481 2515,2499 2511,2533 2499,2556 2394,2768 2284,2976 2182,3187 2125,3293 2084,3406 2031,3531 L 2031,3531 Z"/>
        <path fill="rgb(255,255,255)" stroke="none" d="M 2583,2719 C 2696,3055 2749,3410 3002,3690 2908,3705 2828,3724 2745,3735 2609,3746 2473,3728 2345,3690 2311,3678 2299,3663 2299,3629 2292,3501 2314,3376 2360,3255 2424,3085 2496,2919 2567,2749 2571,2741 2575,2734 2583,2719 L 2583,2719 Z"/>
       </g>
      </g>
     </g>
    </g>
   </g>
  </g>
 </g>
</svg>