<?xml version="1.0" encoding="UTF-8"?> <svg xmlns="http://www.w3.org/2000/svg" width="211" height="46" viewBox="0 0 211 46" fill="none"><rect width="210.444" height="46" fill="black" fill-opacity="0"></rect><path d="M146.717 31.0953C144.505 33.3067 144.498 36.9003 146.717 39.1117C148.928 41.3231 152.522 41.3231 154.733 39.1117L179.243 14.602C181.454 12.3906 181.461 8.79703 179.243 6.58563C177.032 4.37423 173.438 4.37423 171.227 6.58563L146.717 31.0953Z" fill="#00B2CC"></path><path d="M154.815 6.94766C152.603 4.73626 149.01 4.72917 146.798 6.94766C144.587 9.15907 144.587 12.7526 146.798 14.964L171.308 39.4737C173.519 41.6851 177.113 41.6922 179.324 39.4737C181.536 37.2623 181.536 33.6688 179.324 31.4574L154.815 6.94766Z" fill="#00B2CC"></path><path fill-rule="evenodd" clip-rule="evenodd" d="M134.694 5.74918L134.63 5.72792C132.022 4.77815 129.13 6.12484 128.18 8.73316L123.743 20.9313L119.306 8.73316C118.555 6.67769 116.606 5.40188 114.529 5.42314C112.459 5.40188 110.503 6.67769 109.752 8.73316L105.28 21.0235L100.807 8.73316C99.8573 6.12484 96.9655 4.77815 94.3572 5.72792L94.2934 5.74918C91.678 6.69895 90.3384 9.59079 91.2882 12.1991L100.474 37.446C101.225 39.5156 103.196 40.7914 105.287 40.756C107.37 40.7914 109.341 39.5156 110.099 37.446L114.536 25.2478L118.973 37.446C119.725 39.5014 121.674 40.7772 123.75 40.756C125.82 40.7772 127.776 39.5014 128.528 37.446L137.713 12.1991C138.649 9.59079 137.302 6.70604 134.694 5.74918Z" fill="#2A3646"></path><path fill-rule="evenodd" clip-rule="evenodd" d="M72.5765 5.27975C67.7852 5.27975 63.2844 7.12968 59.8893 10.4822C56.4872 13.8489 54.6089 18.3355 54.6089 23.1056C54.6089 27.8757 56.4872 32.3623 59.8893 35.7291C63.2773 39.0816 67.7852 40.9315 72.5765 40.9315C77.3679 40.9315 81.8687 39.0816 85.2637 35.7291C88.673 32.3623 90.5442 27.8757 90.5442 23.1056C90.5442 18.3355 88.6659 13.8489 85.2637 10.4822C81.8687 7.12968 77.3679 5.27975 72.5765 5.27975ZM72.5765 30.7959C68.26 30.7959 64.7445 27.3442 64.7445 23.1056C64.7445 18.8671 68.26 15.4153 72.5765 15.4153C76.893 15.4153 80.4086 18.8671 80.4086 23.1056C80.4086 27.3442 76.893 30.7959 72.5765 30.7959Z" fill="#2A3646"></path><path fill-rule="evenodd" clip-rule="evenodd" d="M50.3244 30.7604H39.2674V10.3475C39.2674 7.56904 37.0135 5.31511 34.2351 5.31511H34.1642C31.3858 5.31511 29.1318 7.56904 29.1318 10.3475V35.7928V35.8636C29.1318 36.9339 29.465 37.9191 30.032 38.7342C30.9392 40.0384 32.4489 40.896 34.1642 40.896H34.2351H50.3244C53.1029 40.896 55.3568 38.6421 55.3568 35.8636V35.7928C55.3568 33.0143 53.1029 30.7604 50.3244 30.7604Z" fill="#2A3646"></path><path fill-rule="evenodd" clip-rule="evenodd" d="M21.9014 5.38753H5.10324H5.03236C2.25393 5.38753 0 7.64146 0 10.4199V35.9361C0 38.7145 2.25393 40.9684 5.03236 40.9684H5.10324C7.88166 40.9684 10.1356 38.7145 10.1356 35.9361V27.9977H15.735C18.5134 27.9977 20.7673 25.7438 20.7673 22.9653V22.8945C20.7673 20.116 18.5134 17.8621 15.735 17.8621H10.1356V15.5231H21.9014C24.6798 15.5231 26.9337 13.2692 26.9337 10.4908V10.4199C26.9337 7.64146 24.6798 5.38753 21.9014 5.38753Z" fill="#2A3646"></path><path d="M208.623 14.041C207.46 11.298 205.802 8.83852 203.682 6.73344C201.57 4.62126 199.104 2.9698 196.361 1.8074C193.526 0.609553 190.506 0 187.402 0C184.297 0 181.278 0.609553 178.436 1.8074C175.693 2.96271 173.205 4.61418 171.093 6.71926C168.98 8.83143 167.343 11.298 166.181 14.041C164.976 16.8832 164.366 19.8955 164.366 23C164.366 26.1045 164.976 29.1168 166.181 31.959C167.343 34.702 168.995 37.1686 171.107 39.2807C173.219 41.3929 175.693 43.0373 178.436 44.1926C181.278 45.3904 184.297 46 187.402 46C190.506 46 193.526 45.3904 196.368 44.1926C199.111 43.0373 201.577 41.3787 203.689 39.2666C205.802 37.1544 207.467 34.6949 208.63 31.959C209.835 29.1168 210.444 26.1045 210.444 23C210.437 19.8955 209.828 16.8832 208.623 14.041ZM187.402 34.6595C184.276 34.6595 181.42 33.4475 179.314 31.4487L170.859 22.9929L179.244 14.608C181.349 12.5738 184.24 11.3405 187.402 11.3405C193.852 11.3405 199.097 16.5713 199.097 23C199.097 29.4287 193.852 34.6595 187.402 34.6595Z" fill="#67C18E"></path><path d="M179.315 31.4488L170.859 22.993L179.244 14.6081C181.455 12.3967 181.462 8.8032 179.244 6.5918C177.195 4.53633 173.963 4.38749 171.738 6.13818C171.561 6.27994 171.39 6.42878 171.227 6.5918L162.843 14.9767L154.826 22.993L162.843 31.0094L171.298 39.4651C171.447 39.614 171.596 39.7486 171.752 39.8762C173.977 41.6694 177.245 41.5348 179.315 39.4651C181.533 37.2537 181.533 33.6673 179.315 31.4488Z" fill="#2A3646"></path></svg> 